<svg xmlns="http://www.w3.org/2000/svg" viewBox="0 0 360 260" width="360" height="260">
  <rect width="360" height="260" fill="#F8F9FC" rx="8"/>
  <rect x="0" y="0" width="360" height="28" fill="#5B8CCC" opacity="0.12" rx="0"/>
  <text x="180" y="19" text-anchor="middle" font-family="system-ui,sans-serif" font-size="12" font-weight="600" fill="#5B8CCC">Bruxism Assessment</text>
  <rect x="80" y="175" width="200" height="38" rx="4" fill="#D4C5A9" stroke="#9E8A6A" stroke-width="1.5"/>
  <path d="M47,168 Q180,154 313,168" fill="#F4A8B4" stroke="#C96C7A" stroke-width="1.5" opacity="0.85"/>
  <ellipse cx="125" cy="93.1125" rx="22" ry="28.4625" fill="#DDEEFF" stroke="#8AAFD4" stroke-width="1.5"/>
  <rect x="117.3" y="122.75" width="15.399999999999999" height="67.25" rx="7.699999999999999" fill="#F5E6C8" stroke="#C9A96E" stroke-width="1.5"/>
  <ellipse cx="125" cy="93.1125" rx="14.08" ry="19.665" fill="#F5E6C8" stroke="#C9A96E" stroke-width="1"/>
  <ellipse cx="180" cy="84.6875" rx="24" ry="30.937500000000004" fill="#DDEEFF" stroke="#8AAFD4" stroke-width="1.5"/>
  <rect x="171.6" y="117.25" width="16.799999999999997" height="72.75" rx="8.399999999999999" fill="#F5E6C8" stroke="#C9A96E" stroke-width="1.5"/>
  <ellipse cx="180" cy="84.6875" rx="15.36" ry="21.375" fill="#F5E6C8" stroke="#C9A96E" stroke-width="1"/>
  <ellipse cx="235" cy="93.1125" rx="22" ry="28.4625" fill="#DDEEFF" stroke="#8AAFD4" stroke-width="1.5"/>
  <rect x="227.3" y="122.75" width="15.399999999999999" height="67.25" rx="7.699999999999999" fill="#F5E6C8" stroke="#C9A96E" stroke-width="1.5"/>
  <ellipse cx="235" cy="93.1125" rx="14.08" ry="19.665" fill="#F5E6C8" stroke="#C9A96E" stroke-width="1"/>
  <line x1="110" y1="73" x2="140" y2="73" stroke="#E05C6B" stroke-width="2.5" stroke-linecap="round"/>
  <line x1="154" y1="65" x2="206" y2="65" stroke="#E05C6B" stroke-width="2.5" stroke-linecap="round"/>
  <text x="180" y="240" text-anchor="middle" font-family="system-ui,sans-serif" font-size="11" font-weight="400" fill="#1A2A3A">Wear facets indicate</text>
  <text x="180" y="254" text-anchor="middle" font-family="system-ui,sans-serif" font-size="11" font-weight="400" fill="#1A2A3A">nighttime grinding</text>
  <circle cx="26" cy="26" r="12" fill="#5B8CCC" opacity="0.9"/>
  <text x="26" y="31" text-anchor="middle" font-family="system-ui,sans-serif" font-size="13" font-weight="700" fill="white">1</text>
</svg>