<svg xmlns="http://www.w3.org/2000/svg" viewBox="0 0 360 260" width="360" height="260">
  <rect width="360" height="260" fill="#F8F9FC" rx="8"/>
  <rect x="0" y="0" width="360" height="28" fill="#5B8CCC" opacity="0.12" rx="0"/>
  <text x="180" y="19" text-anchor="middle" font-family="system-ui,sans-serif" font-size="12" font-weight="600" fill="#5B8CCC">Persistent Infection at Root Tip</text>
  <rect x="110" y="190" width="140" height="38" rx="4" fill="#D4C5A9" stroke="#9E8A6A" stroke-width="1.5"/>
  <path d="M89,180 Q180,166 271,180" fill="#F4A8B4" stroke="#C96C7A" stroke-width="1.5" opacity="0.85"/>
  <ellipse cx="180" cy="64.4125" rx="30" ry="38.362500000000004" fill="#DDEEFF" stroke="#8AAFD4" stroke-width="1.5"/>
  <rect x="169.5" y="105.75" width="21" height="89.25" rx="10.5" fill="#F5E6C8" stroke="#C9A96E" stroke-width="1.5"/>
  <ellipse cx="180" cy="64.4125" rx="19.2" ry="26.505" fill="#F5E6C8" stroke="#C9A96E" stroke-width="1"/>
  <ellipse cx="180" cy="67.9" rx="7.800000000000001" ry="15.345" fill="#D4E8C2" stroke="#7BAD55" stroke-width="1"/>
  <rect x="177" y="78.36250000000001" width="6" height="59.675" rx="3" fill="#D4E8C2" stroke="#7BAD55" stroke-width="1"/>
  <circle cx="180" cy="202" r="14" fill="#FADADD" stroke="#E05C6B" stroke-width="2" opacity="0.9"/>
  <line x1="222" y1="205" x2="195" y2="202" stroke="#E05C6B" stroke-width="2"/>
  <polygon points="195,202 205.49099497711043,198.13489658738038 204.38667971636195,208.07373393411658" fill="#E05C6B"/>
  <text x="230" y="202" text-anchor="start" font-family="system-ui,sans-serif" font-size="9" font-weight="400" fill="#E05C6B">Abscess</text>
  <text x="180" y="240" text-anchor="middle" font-family="system-ui,sans-serif" font-size="11" font-weight="400" fill="#1A2A3A">Infection at root apex</text>
  <text x="180" y="254" text-anchor="middle" font-family="system-ui,sans-serif" font-size="11" font-weight="400" fill="#1A2A3A">didn't resolve with root canal</text>
  <circle cx="26" cy="26" r="12" fill="#5B8CCC" opacity="0.9"/>
  <text x="26" y="31" text-anchor="middle" font-family="system-ui,sans-serif" font-size="13" font-weight="700" fill="white">1</text>
</svg>