<svg xmlns="http://www.w3.org/2000/svg" viewBox="0 0 360 260" width="360" height="260">
  <rect width="360" height="260" fill="#F8F9FC" rx="8"/>
  <rect x="0" y="0" width="360" height="28" fill="#5B8CCC" opacity="0.12" rx="0"/>
  <text x="180" y="19" text-anchor="middle" font-family="system-ui,sans-serif" font-size="12" font-weight="600" fill="#5B8CCC">Graft Sutured in Place</text>
  <rect x="105" y="198" width="150" height="35" rx="4" fill="#D4C5A9" stroke="#9E8A6A" stroke-width="1.5"/>
  <path d="M125,130 Q160,110 180,120 Q200,110 235,130" fill="#F4A8B4" stroke="#C96C7A" stroke-width="2"}/>
  <ellipse cx="180" cy="75.9875" rx="29" ry="40.8375" fill="#DDEEFF" stroke="#8AAFD4" stroke-width="1.5"/>
  <rect x="169.85" y="120.24999999999999" width="20.299999999999997" height="94.75000000000001" rx="10.149999999999999" fill="#F5E6C8" stroke="#C9A96E" stroke-width="1.5"/>
  <ellipse cx="180" cy="75.9875" rx="18.56" ry="28.214999999999996" fill="#F5E6C8" stroke="#C9A96E" stroke-width="1"/>
  <path d="M160,138 Q180,130 200,138 L202,165 Q180,172 158,165 Z" fill="#FFD166" stroke="#E6A000" stroke-width="2" opacity="0.8"/>
  <circle cx="162" cy="140" r="2" fill="#5B8CCC"/>
  <circle cx="198" cy="140" r="2" fill="#5B8CCC"/>
  <text x="180" y="240" text-anchor="middle" font-family="system-ui,sans-serif" font-size="11" font-weight="400" fill="#1A2A3A">Graft stitched over</text>
  <text x="180" y="254" text-anchor="middle" font-family="system-ui,sans-serif" font-size="11" font-weight="400" fill="#1A2A3A">exposed root surface</text>
  <circle cx="26" cy="26" r="12" fill="#5B8CCC" opacity="0.9"/>
  <text x="26" y="31" text-anchor="middle" font-family="system-ui,sans-serif" font-size="13" font-weight="700" fill="white">3</text>
</svg>